<svg width="16" height="17" viewBox="0 0 16 17" fill="none" xmlns="http://www.w3.org/2000/svg">
<path d="M8.46667 4.3H1.62222C1.62222 4.3 1.62222 4.3 1.31111 4.3C1 4.3 1 4.61111 1 4.61111C1 4.61111 1 14.2556 1 14.8778C1 15.5 1.62222 15.5 1.62222 15.5H11.5778C11.5778 15.5 12.2 15.5 12.2 14.8778C12.2 14.2556 12.2 7.72222 12.2 7.72222M8.46667 1.5C8.46667 1.5 13.7556 1.5 14.3778 1.5C15 1.5 15 1.5 15 1.81111C15 2.12222 15 7.72222 15 7.72222M5.97778 10.5222L14.6889 1.81111" stroke="#DCEBDC" stroke-width="1.3125" stroke-linecap="round" stroke-linejoin="round"/>
</svg>
